<?xml version="1.0" encoding="utf-8"?>
<svg version="1.1" id="Capa_1" xmlns="http://www.w3.org/2000/svg" xmlns:xlink="http://www.w3.org/1999/xlink" x="0px" y="0px"
	 viewBox="0 0 349.2 368.6" style="enable-background:new 0 0 349.2 368.6;" xml:space="preserve">
<style type="text/css">
	.st0{fill:#C80F2E;}
</style>
<g>
	<polygon class="st0" points="188.7,103.2 185,103.2 185,107.6 180.6,107.6 180.6,111.3 185,111.3 185,115.7 186.3,115.7
		186.3,121.4 187.5,121.4 187.5,115.7 188.7,115.7 188.7,111.3 193.1,111.3 193.1,107.6 188.7,107.6 	"/>
	<path class="st0" d="M143.2,77.6L143.2,77.6l6.4,15.6l-8,16.3c0,0,6.1,12.2,8,23c1.9,10.5,0.4,26.8,0.4,26.8l30.1-15.1v-0.1
		c1.3,2.1,2.9,4.1,4.8,6c5.1,5.1,6.8,6.8,6.8,6.8l23.3-23.3l-1.5-1.4c-9.4-8.8-13.4-17.1-13.4-27.7V93.1l6.4-15.5l0,0
		c1.2-0.4,2-1.6,2-2.9c0-1.7-1.4-3.1-3.1-3.1c-1.7,0-3.1,1.4-3.1,3.1c0,0.8,0.3,1.5,0.7,2c-0.9,2.6-3.1,4.7-5.8,5.4
		c-1.4-3.7-1.3-8,0.6-11.8c1.7-3.5,4.6-5.9,8-7.2c-2.2-2.8-3.4-6.4-3.1-10.3c0.3-3.8,2.1-7.2,4.7-9.6c-1.7-0.4-7.1-1.2-12.9,2.2
		c-3.2-2.4-5.3-6.2-5.3-10.5c0-1,0.1-1.9,0.3-2.8c-1.4,0.6-3,0.9-4.7,0.9c-4.7,0-8.9-2.7-10.9-6.7l0,0c-1.9,2.9-5.1,4.9-8.8,4.9
		s-6.9-1.9-8.8-4.8c0.8,8.6-1.8,18.8-9.2,24.2l2,2.7c1.2-0.9,2.4-1.9,3.5-3c0.5-0.5,0.9-0.8,1.5-0.7c0.9,0,1.7,0.8,1.7,1.8
		c0,0.4-0.2,0.8-0.3,1.1l0,0c-0.5,1-0.8,2.2-0.8,3.4c0,1.2,0.3,2.3,0.7,3.3l3-1.4c-1.4-3,1-5.8,4.8-8.7c2.7-2,5.6-3.9,7.7-4
		c2.3,0,4.3,1.9,4.3,4.3c0,2.6-2.6,4.7-4.6,6c-7.5,4.7-15.1,8.2-18.6,16.6c-1.5,3.5-1.9,7.1-2.1,9.1c-1.9-1.3-3-3.2-3.4-4.3
		c0.5-0.5,0.7-1.2,0.7-2c0-1.7-1.4-3.1-3.1-3.1s-3.1,1.4-3.1,3.1C141.2,76,142.1,77.2,143.2,77.6z M164.8,147.7l-10.7,5.4
		c0.3-5.9,0.4-14.6-0.8-21.2c-1.4-7.7-4.7-16-6.7-20.5h18.2V147.7z M168.5,145.9v-38.2h-21.8l6.8-13.8h20.2v10.7
		c0,3.2,0,9.8,0.5,16.9c0.5,7,1.4,13.6,4.2,19.6L168.5,145.9z M209.6,133.7l-18,18l-4.1-4.1c-7-7-8.9-15.7-9.6-26.5
		c-0.3-5-0.5-10.4-0.5-16.6V93.8h6.6h12.3l0,0v10.7C196.3,115.7,200.4,124.7,209.6,133.7z M155.2,73.5c3.4-8.7,14.4-13,19.5-16.6
		c1.4-1,4.2-3.8,4.2-7.5c-0.1-4.3-3.5-7.7-7.7-7.7c-4,0-9.9,4.5-12.5,7.2c-0.8-1.2-1.6-1.9-2.9-2.3c2.5-4.4,3.4-8.4,4.1-12.9
		c1.7,0.7,3.5,1.1,5.4,1.1c3.2,0,6.2-1.1,8.5-2.9c2.9,2.9,6.8,4.7,11.2,4.7c0.3,0,0.7,0,1,0c0.4,4.4,2.5,8.3,5.7,11.1l-0.2,0.2
		c-1.6,1.4-3.2,3.1-4.7,5.4c-3.3,4.8-6.7,7.2-9,8.4c-2.1,1.1-3.6,1.4-4.1,1.4c0.3,1.2,0.4,2.4,0.4,3.7c0,2.3-0.4,4.5-1.2,6.5
		l3.2,1.2c0.9-2.4,1.4-5,1.4-7.7c0-0.3,0-0.6,0-0.9c3.2-1.2,8-4.1,12.3-10.5c3.6-5.3,7.7-7.4,10.9-8.2c-0.7,1.7-1.2,3.6-1.4,5.6
		c-0.3,3.3,0.4,6.4,1.7,9.2c-2.6,1.7-4.7,4.1-6.2,7c-2.2,4.4-2.5,9.2-1.1,13.6c-3.1-0.5-5.6-2.6-6.7-5.4c0.6-0.6,1-1.4,1-2.2
		c0-1.7-1.4-3.1-3.1-3.1s-3.1,1.4-3.1,3.1c0,0.9,0.4,1.7,1,2.2c-1.2,3.2-4.3,5.5-8,5.5c-3.6,0-6.7-2.3-8-5.5c0.6-0.6,1-1.4,1-2.2
		c0-1.7-1.4-3.1-3.1-3.1c-1.7,0-3.1,1.4-3.1,3.1c0,0.9,0.4,1.7,1,2.2c-1.2,3.2-4.3,5.5-8,5.5c-0.4,0-0.8,0-1.2-0.1
		C153.5,80.9,153.7,77.1,155.2,73.5z M154.7,85.9c4.2,0,7.9-2.2,10.1-5.4c2.1,3.3,5.8,5.4,10.1,5.4c4.2,0,7.9-2.2,10.1-5.4
		c2.1,3.3,5.8,5.4,10.1,5.4c1.7,0,3.3-0.3,4.7-1l-2.1,5.2h-45.4l-2.1-5.2C151.4,85.6,153,85.9,154.7,85.9z"/>
	<circle class="st0" cx="163.3" cy="39.4" r="2"/>
	<path class="st0" d="M177.3,152.5l-6.8,6.8l44,44c-2.5-11.1-8-21.6-16.6-30.2L177.3,152.5z"/>
	<path class="st0" d="M144.8,185.1l51.6,51.6c4.2,0,8.3-0.4,12.4-1.2l-57.2-57.2L144.8,185.1z"/>
	<path class="st0" d="M147.9,62.1c3.7-5.5,4.4-5.6,4.4-5.6s-3.5-1.1-5.8,2.2c-3.7,5.5-4.3,5.6-4.3,5.6S145.7,65.3,147.9,62.1z"/>
	<path class="st0" d="M216,217l-51.6-51.6l-6.8,6.8l57.2,57.2C215.6,225.3,216,221.1,216,217z"/>
	<path class="st0" d="M182.7,235.2l-44-44l-6.8,6.8l20.6,20.6C161.1,227.2,171.6,232.7,182.7,235.2z"/>
	<path class="st0" d="M301.2,309.2l-13.5,32.6h4.7l2.7-6.6h13.7l2.7,6.6h4.7l-13.5-32.6H301.2z M296.7,331l5.2-12.6l5.2,12.6H296.7z
		"/>
	<polygon class="st0" points="277.9,332.5 257.4,309.2 256,309.2 256,341.8 260.3,341.8 260.3,318.9 280.8,342.3 282.3,342.3
		282.3,309.6 277.9,309.6 	"/>
	<rect x="212.2" y="309.6" class="st0" width="4.6" height="32.2"/>
	<path class="st0" d="M195.7,262.5l-13.5,32.6h4.7l2.7-6.6h13.8l2.7,6.6h4.7l-13.5-32.6H195.7z M191.3,284.4l5.2-12.6l0,0l5.2,12.6
		H191.3z"/>
	<path class="st0" d="M191.7,337.9c-6.8,0-11.8-5.1-11.8-12.2c0-7,5-12.2,11.6-12.2c4.8,0,7.6,2.2,9.7,5l3.6-2.6
		c-2.7-3.9-6.9-6.7-13.2-6.7c-9.3,0-16.3,7.1-16.3,16.5s7,16.5,16.4,16.5c6.6,0,10.9-2.8,13.9-7.1l-3.6-2.6
		C199.7,335.7,196.4,337.9,191.7,337.9z"/>
	<path class="st0" d="M171.3,285c4.4-1.9,6.7-5.5,6.7-10.3c0-7.3-5-11.7-13.5-11.7H156v32.2h4.5v-8.9h4c0.8,0,1.5,0,2.1-0.1l6,9h5.5
		L171.3,285z M164.4,282.1h-3.8v-14.9h3.8c6,0,9,2.4,9,7.5C173.3,279.7,170.4,282.1,164.4,282.1z"/>
	<polygon class="st0" points="164.3,332.5 143.8,309.2 142.4,309.2 142.4,341.8 146.7,341.8 146.7,318.9 167.2,342.3 168.6,342.3
		168.6,309.6 164.3,309.6 	"/>
	<polygon class="st0" points="118.4,330.5 132.3,330.5 132.3,326.3 118.4,326.3 118.4,313.8 133.9,313.8 133.9,309.6 113.9,309.6
		113.9,341.8 134.6,341.8 134.6,337.6 118.4,337.6 	"/>
	<path class="st0" d="M68.8,309.2l-13.5,32.6H60l2.7-6.6h13.8l2.7,6.6h4.7l-13.5-32.6H68.8z M64.4,331l5.2-12.6l0,0l5.2,12.6H64.4z"
		/>
	<path class="st0" d="M43,295.5c5.8,0,9.5-1.6,12.9-4.7v-11.2H42.3v4.2h9.2v4.9c-2.2,1.7-5,2.5-8.5,2.5c-7,0-12.1-5.1-12.1-12.2
		c0-7,5-12.2,11.6-12.2c5.6,0,7.8,2.5,9.5,4.4l3.3-3c-2.9-3.4-6.6-5.6-12.7-5.6c-9.2,0-16.3,7.2-16.3,16.5
		C26.2,288.5,33.4,295.5,43,295.5z"/>
	<polygon class="st0" points="52.7,309.6 43.4,332.8 34.1,309.6 29.2,309.6 42.7,342.3 44.1,342.3 57.6,309.6 	"/>
	<polygon class="st0" points="68.3,283.8 82.2,283.8 82.2,279.6 68.3,279.6 68.3,267.2 83.8,267.2 83.8,263 63.8,263 63.8,295.2
		84.5,295.2 84.5,290.9 68.3,290.9 	"/>
	<polygon class="st0" points="93.7,309.6 89.2,309.6 89.2,341.8 107.9,341.8 107.9,337.6 93.7,337.6 	"/>
	<polygon class="st0" points="96.6,272.3 117.1,295.6 118.6,295.6 118.6,263 114.2,263 114.2,285.8 93.7,262.5 92.3,262.5
		92.3,295.2 96.6,295.2 	"/>
	<polygon class="st0" points="148.3,290.9 132.1,290.9 132.1,283.8 146,283.8 146,279.6 132.1,279.6 132.1,267.2 147.6,267.2
		147.6,263 127.6,263 127.6,295.2 148.3,295.2 	"/>
	<polygon class="st0" points="234.8,290.9 220.6,290.9 220.6,263 216,263 216,295.2 234.8,295.2 	"/>
	<rect x="240.7" y="263" class="st0" width="4.6" height="32.2"/>
	<path class="st0" d="M235.6,309.2l-13.5,32.6h4.7l2.7-6.6h13.8l2.7,6.6h4.7l-13.5-32.6H235.6z M231.2,331l5.2-12.6l5.2,12.6H231.2z
		"/>
	<polygon class="st0" points="260.8,295.2 265.3,295.2 265.3,267.2 274.8,267.2 274.8,263 251.3,263 251.3,267.2 260.8,267.2 	"/>
	<path class="st0" d="M277.4,295.2l2.7-6.6h13.7l2.7,6.6h4.7l-13.5-32.6h-1.4l-13.5,32.6H277.4z M286.9,271.8l5.2,12.6h-10.3
		L286.9,271.8z"/>
	<polygon class="st0" points="299.1,263 299.1,267.2 308.6,267.2 308.6,295.2 313.1,295.2 313.1,267.2 322.9,267.2 322.9,263 	"/>
</g>
</svg>
